<mxfile host="app.diagrams.net" agent="Mozilla/5.0 (X11; Ubuntu; Linux x86_64; rv:134.0) Gecko/20100101 Firefox/134.0" version="26.0.8">
  <diagram name="Page-1" id="bhr50IP04YVCHacs4jRb">
    <mxGraphModel dx="728" dy="510" grid="1" gridSize="10" guides="1" tooltips="1" connect="1" arrows="1" fold="1" page="1" pageScale="1" pageWidth="1100" pageHeight="850" math="0" shadow="0">
      <root>
        <mxCell id="0" />
        <mxCell id="1" parent="0" />
        <mxCell id="zDn7dpVvbLvQQsOELMDf-7" value="" style="fontColor=#ffffff;verticalAlign=top;verticalLabelPosition=bottom;labelPosition=center;align=center;html=1;outlineConnect=0;fillColor=#0050ef;strokeColor=#000000;gradientDirection=north;strokeWidth=2;shape=mxgraph.networks.laptop;shadow=1;" vertex="1" parent="1">
          <mxGeometry x="66.64" y="235.93" width="110" height="80" as="geometry" />
        </mxCell>
        <mxCell id="zDn7dpVvbLvQQsOELMDf-1" value="" style="image;sketch=0;aspect=fixed;html=1;points=[];align=center;fontSize=12;image=img/lib/mscae/Docker.svg;strokeWidth=2;" vertex="1" parent="1">
          <mxGeometry x="99.99" y="240" width="43.29" height="35.5" as="geometry" />
        </mxCell>
        <mxCell id="zDn7dpVvbLvQQsOELMDf-2" value="" style="aspect=fixed;sketch=0;html=1;dashed=0;whitespace=wrap;verticalLabelPosition=bottom;verticalAlign=top;points=[[0.005,0.63,0],[0.1,0.2,0],[0.9,0.2,0],[0.5,0,0],[0.995,0.63,0],[0.72,0.99,0],[0.5,1,0],[0.28,0.99,0]];shape=mxgraph.kubernetes.icon2;prIcon=api;strokeColor=#0000CC;strokeWidth=2;shadow=1;gradientColor=none;" vertex="1" parent="1">
          <mxGeometry x="430" y="232.96" width="89.51" height="85.93" as="geometry" />
        </mxCell>
        <mxCell id="zDn7dpVvbLvQQsOELMDf-4" value="&lt;font style=&quot;font-size: 14px;&quot; face=&quot;Comic Sans MS&quot;&gt;&lt;b&gt;Build and run container&amp;nbsp; locally&lt;br&gt;&lt;/b&gt;&lt;/font&gt;" style="text;html=1;align=center;verticalAlign=middle;whiteSpace=wrap;rounded=0;" vertex="1" parent="1">
          <mxGeometry x="60" y="184.78" width="140" height="30" as="geometry" />
        </mxCell>
        <mxCell id="zDn7dpVvbLvQQsOELMDf-10" value="&lt;b&gt;&lt;font face=&quot;Comic Sans MS&quot;&gt;Region&lt;/font&gt;&lt;/b&gt;" style="points=[[0,0],[0.25,0],[0.5,0],[0.75,0],[1,0],[1,0.25],[1,0.5],[1,0.75],[1,1],[0.75,1],[0.5,1],[0.25,1],[0,1],[0,0.75],[0,0.5],[0,0.25]];outlineConnect=0;gradientColor=none;html=1;whiteSpace=wrap;fontSize=12;fontStyle=0;container=1;pointerEvents=0;collapsible=0;recursiveResize=0;shape=mxgraph.aws4.group;grIcon=mxgraph.aws4.group_region;strokeColor=#00A4A6;fillColor=none;verticalAlign=top;align=left;spacingLeft=30;fontColor=#147EBA;dashed=1;strokeWidth=2;shadow=1;" vertex="1" parent="1">
          <mxGeometry x="200" y="360" width="520" height="250" as="geometry" />
        </mxCell>
        <mxCell id="zDn7dpVvbLvQQsOELMDf-14" value="" style="dashed=0;outlineConnect=0;html=1;align=center;labelPosition=center;verticalLabelPosition=bottom;verticalAlign=top;shape=mxgraph.weblogos.json;fillColor=#fad9d5;strokeColor=#ae4132;shadow=1;strokeWidth=0;" vertex="1" parent="zDn7dpVvbLvQQsOELMDf-10">
          <mxGeometry x="100" y="130" width="40" height="30" as="geometry" />
        </mxCell>
        <mxCell id="zDn7dpVvbLvQQsOELMDf-16" value="" style="sketch=0;outlineConnect=0;fontColor=#ffffff;fillColor=#008a00;strokeColor=#005700;dashed=0;verticalLabelPosition=bottom;verticalAlign=top;align=center;html=1;fontSize=12;fontStyle=0;aspect=fixed;pointerEvents=1;shape=mxgraph.aws4.bucket;" vertex="1" parent="zDn7dpVvbLvQQsOELMDf-10">
          <mxGeometry x="80" y="78.2" width="90" height="93.6" as="geometry" />
        </mxCell>
        <mxCell id="zDn7dpVvbLvQQsOELMDf-17" value="&lt;font style=&quot;font-size: 14px;&quot; face=&quot;Comic Sans MS&quot;&gt;&lt;b&gt;S3 Bucket&lt;br&gt;&lt;/b&gt;&lt;/font&gt;" style="text;html=1;align=center;verticalAlign=middle;whiteSpace=wrap;rounded=0;" vertex="1" parent="zDn7dpVvbLvQQsOELMDf-10">
          <mxGeometry x="55" y="48.19999999999999" width="140" height="30" as="geometry" />
        </mxCell>
        <mxCell id="zDn7dpVvbLvQQsOELMDf-18" value="" style="sketch=0;aspect=fixed;pointerEvents=1;shadow=0;dashed=0;html=1;strokeColor=none;labelPosition=center;verticalLabelPosition=bottom;verticalAlign=top;align=center;fillColor=#00188D;shape=mxgraph.mscae.general.video" vertex="1" parent="zDn7dpVvbLvQQsOELMDf-10">
          <mxGeometry x="90.00000000000003" y="105.5" width="29.4" height="30" as="geometry" />
        </mxCell>
        <mxCell id="zDn7dpVvbLvQQsOELMDf-19" value="" style="sketch=0;points=[[0,0,0],[0.25,0,0],[0.5,0,0],[0.75,0,0],[1,0,0],[0,1,0],[0.25,1,0],[0.5,1,0],[0.75,1,0],[1,1,0],[0,0.25,0],[0,0.5,0],[0,0.75,0],[1,0.25,0],[1,0.5,0],[1,0.75,0]];outlineConnect=0;fontColor=#232F3E;fillColor=#ED7100;strokeColor=#ffffff;dashed=0;verticalLabelPosition=bottom;verticalAlign=top;align=center;html=1;fontSize=12;fontStyle=0;aspect=fixed;shape=mxgraph.aws4.resourceIcon;resIcon=mxgraph.aws4.elemental_mediaconvert;" vertex="1" parent="zDn7dpVvbLvQQsOELMDf-10">
          <mxGeometry x="390" y="81" width="79" height="79" as="geometry" />
        </mxCell>
        <mxCell id="zDn7dpVvbLvQQsOELMDf-21" value="&lt;font face=&quot;Comic Sans MS&quot;&gt;&lt;b&gt;AWS Elements MediaConverter&lt;br&gt;&lt;/b&gt;&lt;/font&gt;" style="text;html=1;align=center;verticalAlign=middle;whiteSpace=wrap;rounded=0;" vertex="1" parent="zDn7dpVvbLvQQsOELMDf-10">
          <mxGeometry x="359.5" y="51" width="140" height="30" as="geometry" />
        </mxCell>
        <mxCell id="zDn7dpVvbLvQQsOELMDf-25" value="" style="endArrow=blockThin;startArrow=blockThin;html=1;rounded=0;entryX=-0.011;entryY=0.513;entryDx=0;entryDy=0;entryPerimeter=0;startFill=1;endFill=1;strokeColor=#0000CC;flowAnimation=1;dashed=1;dashPattern=12 12;strokeWidth=2;" edge="1" parent="zDn7dpVvbLvQQsOELMDf-10">
          <mxGeometry width="50" height="50" relative="1" as="geometry">
            <mxPoint x="165.4920330480968" y="122.16221472284833" as="sourcePoint" />
            <mxPoint x="390" y="118.83" as="targetPoint" />
          </mxGeometry>
        </mxCell>
        <mxCell id="zDn7dpVvbLvQQsOELMDf-11" value="&lt;font style=&quot;font-size: 14px;&quot; face=&quot;Comic Sans MS&quot;&gt;&lt;b&gt;NCAA Sports Highlights API&lt;br&gt;&lt;/b&gt;&lt;/font&gt;" style="text;html=1;align=center;verticalAlign=middle;whiteSpace=wrap;rounded=0;" vertex="1" parent="1">
          <mxGeometry x="404.76" y="170" width="140" height="30" as="geometry" />
        </mxCell>
        <mxCell id="zDn7dpVvbLvQQsOELMDf-23" value="" style="endArrow=blockThin;startArrow=blockThin;html=1;rounded=0;exitX=0.85;exitY=0.5;exitDx=0;exitDy=0;exitPerimeter=0;entryX=-0.011;entryY=0.513;entryDx=0;entryDy=0;entryPerimeter=0;startFill=1;endFill=1;strokeColor=#0000CC;flowAnimation=1;dashed=1;dashPattern=12 12;strokeWidth=2;" edge="1" parent="1" source="zDn7dpVvbLvQQsOELMDf-7" target="zDn7dpVvbLvQQsOELMDf-2">
          <mxGeometry width="50" height="50" relative="1" as="geometry">
            <mxPoint x="380" y="325.5" as="sourcePoint" />
            <mxPoint x="430" y="275.5" as="targetPoint" />
          </mxGeometry>
        </mxCell>
        <mxCell id="zDn7dpVvbLvQQsOELMDf-27" value="" style="endArrow=blockThin;startArrow=blockThin;html=1;rounded=0;startFill=1;endFill=1;strokeColor=#0000CC;flowAnimation=1;dashed=1;dashPattern=12 12;strokeWidth=2;edgeStyle=orthogonalEdgeStyle;" edge="1" parent="1" target="zDn7dpVvbLvQQsOELMDf-16">
          <mxGeometry width="50" height="50" relative="1" as="geometry">
            <mxPoint x="120" y="315.93000000000006" as="sourcePoint" />
            <mxPoint x="240" y="483.28" as="targetPoint" />
            <Array as="points">
              <mxPoint x="120" y="483" />
            </Array>
          </mxGeometry>
        </mxCell>
      </root>
    </mxGraphModel>
  </diagram>
</mxfile>
